<?xml version="1.0" encoding="UTF-8" standalone="no"?>
<!DOCTYPE svg PUBLIC "-//W3C//DTD SVG 1.0//EN" "http://www.w3.org/TR/2001/PR-SVG-20010719/DTD/svg10.dtd">
<svg width="24cm" height="20cm" viewBox="78 78 463 383" xmlns="http://www.w3.org/2000/svg" xmlns:xlink="http://www.w3.org/1999/xlink">
  <ellipse style="fill: none; fill-opacity:0; stroke-width: 20; stroke: #7f7f7f" cx="310" cy="270" rx="170" ry="170"/>
  <g>
    <ellipse style="fill: #ffffff" cx="210" cy="130" rx="50" ry="50"/>
    <ellipse style="fill: none; fill-opacity:0; stroke-width: 2; stroke: #000000" cx="210" cy="130" rx="50" ry="50"/>
  </g>
  <text font-size="12.8" style="fill: #000000;text-anchor:middle;font-family:sans-serif;font-style:normal;font-weight:700" x="210" y="118.45">
    <tspan x="210" y="118.45">Intellectual</tspan>
    <tspan x="210" y="134.45">Property</tspan>
    <tspan x="210" y="150.45">Management</tspan>
  </text>
  <g>
    <ellipse style="fill: #ffffff" cx="410" cy="130" rx="50" ry="50"/>
    <ellipse style="fill: none; fill-opacity:0; stroke-width: 2; stroke: #000000" cx="410" cy="130" rx="50" ry="50"/>
  </g>
  <text font-size="12.8" style="fill: #000000;text-anchor:middle;font-family:sans-serif;font-style:normal;font-weight:700" x="410" y="126.45">
    <tspan x="410" y="126.45">Development</tspan>
    <tspan x="410" y="142.45">Process</tspan>
  </text>
  <g>
    <ellipse style="fill: #ffffff" cx="130" cy="270" rx="50" ry="50"/>
    <ellipse style="fill: none; fill-opacity:0; stroke-width: 2; stroke: #000000" cx="130" cy="270" rx="50" ry="50"/>
  </g>
  <text font-size="12.8" style="fill: #000000;text-anchor:middle;font-family:sans-serif;font-style:normal;font-weight:700" x="130" y="258.45">
    <tspan x="130" y="258.45">Forge</tspan>
    <tspan x="130" y="274.45">&amp;</tspan>
    <tspan x="130" y="290.45">Build</tspan>
  </text>
  <g>
    <ellipse style="fill: #ffffff" cx="210" cy="410" rx="50" ry="50"/>
    <ellipse style="fill: none; fill-opacity:0; stroke-width: 2; stroke: #000000" cx="210" cy="410" rx="50" ry="50"/>
  </g>
  <text font-size="12.8" style="fill: #000000;text-anchor:middle;font-family:sans-serif;font-style:normal;font-weight:700" x="210" y="406.45">
    <tspan x="210" y="406.45">Member</tspan>
    <tspan x="210" y="422.45">Network</tspan>
  </text>
  <g>
    <ellipse style="fill: #ffffff" cx="410" cy="410" rx="50" ry="50"/>
    <ellipse style="fill: none; fill-opacity:0; stroke-width: 2; stroke: #000000" cx="410" cy="410" rx="50" ry="50"/>
  </g>
  <text font-size="12.8" style="fill: #000000;text-anchor:middle;font-family:sans-serif;font-style:normal;font-weight:700" x="410" y="414.45">
    <tspan x="410" y="414.45">Community</tspan>
  </text>
  <g>
    <ellipse style="fill: #ffffff" cx="490" cy="270" rx="50" ry="50"/>
    <ellipse style="fill: none; fill-opacity:0; stroke-width: 2; stroke: #000000" cx="490" cy="270" rx="50" ry="50"/>
  </g>
  <text font-size="12.8" style="fill: #000000;text-anchor:middle;font-family:sans-serif;font-style:normal;font-weight:700" x="490" y="266.45">
    <tspan x="490" y="266.45">Licensing</tspan>
    <tspan x="490" y="282.45">Model</tspan>
  </text>
  <g>
    <ellipse style="fill: #ffffff" cx="310" cy="270" rx="70" ry="70"/>
    <ellipse style="fill: none; fill-opacity:0; stroke-width: 2; stroke: #000000" cx="310" cy="270" rx="70" ry="70"/>
  </g>
  <text font-size="13.5467" style="fill: #000000;text-anchor:middle;font-family:sans-serif;font-style:normal;font-weight:700" x="310" y="274.7">
    <tspan x="310" y="274.7">Governance</tspan>
  </text>
</svg>
