<?xml version="1.0" encoding="UTF-8" standalone="no"?>
<!-- Created with Inkscape (http://www.inkscape.org/) -->

<svg
   xmlns:dc="http://purl.org/dc/elements/1.1/"
   xmlns:cc="http://creativecommons.org/ns#"
   xmlns:rdf="http://www.w3.org/1999/02/22-rdf-syntax-ns#"
   xmlns:svg="http://www.w3.org/2000/svg"
   xmlns="http://www.w3.org/2000/svg"
   xmlns:inkscape="http://www.inkscape.org/namespaces/inkscape"
   version="1.1"
   width="8434.6133"
   height="3106.5432"
   id="svg2">
  <defs
     id="defs4">
    <inkscape:path-effect
       effect="spiro"
       id="path-effect3140" />
    <inkscape:path-effect
       effect="skeletal"
       id="path-effect3095" />
    <inkscape:path-effect
       effect="spiro"
       id="path-effect3093" />
    <inkscape:path-effect
       effect="spiro"
       id="path-effect3041" />
  </defs>
  <metadata
     id="metadata7">
    <rdf:RDF>
      <cc:Work
         rdf:about="">
        <dc:format>image/svg+xml</dc:format>
        <dc:type
           rdf:resource="http://purl.org/dc/dcmitype/StillImage" />
        <dc:title></dc:title>
      </cc:Work>
    </rdf:RDF>
  </metadata>
  <g
     id="layer8"
     style="display:inline">
    <g
       transform="matrix(4.4893286,0,0,4.4893286,3240.4718,-1334.7079)"
       id="g3711"
       style="font-size:100.45249176px;font-style:italic;font-variant:normal;font-weight:bold;font-stretch:normal;line-height:125%;letter-spacing:0px;word-spacing:0px;fill:#0066ff;fill-opacity:1;stroke:none;display:inline;font-family:Muli;-inkscape-font-specification:Muli Bold Italic">
      <path
         d="m 647.25885,855.88824 c 3.04703,5e-5 5.8597,0.51905 8.43801,1.55701 2.57824,1.00458 4.80494,2.47788 6.68009,4.41991 1.87507,1.90864 3.33163,4.28602 4.36969,7.13213 1.07144,2.8127 1.60719,6.02718 1.60723,9.64344 -4e-5,1.40636 -0.15072,2.34392 -0.45203,2.81267 -0.30141,0.4688 -0.87064,0.70319 -1.70769,0.70316 l -33.85249,0 c 0.0669,3.21451 0.50225,6.01043 1.30588,8.38779 0.8036,2.37739 1.90858,4.36969 3.31493,5.97692 1.40632,1.57377 3.08052,2.76245 5.02263,3.56606 1.94205,0.77015 4.11852,1.15521 6.52941,1.15521 2.24341,0 4.16874,-0.25113 5.77602,-0.7534 1.64068,-0.53573 3.04702,-1.10496 4.219,-1.70769 1.17191,-0.6027 2.14295,-1.15519 2.91312,-1.65746 0.80358,-0.53574 1.49001,-0.80361 2.05928,-0.80362 0.73661,10e-6 1.30584,0.28462 1.70769,0.85384 l 2.51131,3.26471 c -1.10502,1.33937 -2.42764,2.51131 -3.96787,3.51584 -1.54031,0.97104 -3.19778,1.77466 -4.9724,2.41086 -1.74121,0.63619 -3.54935,1.10497 -5.42443,1.40633 -1.87515,0.33484 -3.73352,0.50226 -5.57512,0.50226 -3.51586,0 -6.76382,-0.58597 -9.74389,-1.75792 -2.94662,-1.20542 -5.50816,-2.9466 -7.68461,-5.22353 -2.143,-2.31039 -3.8172,-5.15655 -5.02263,-8.53846 -1.20543,-3.38188 -1.80815,-7.26604 -1.80814,-11.65249 -10e-6,-3.54929 0.53574,-6.86422 1.60724,-9.94479 1.10497,-3.08051 2.67872,-5.7425 4.72126,-7.98598 2.04253,-2.27687 4.53709,-4.05153 7.48372,-5.32398 2.94658,-1.30583 6.26151,-1.95877 9.94479,-1.95882 m 0.20091,6.57964 c -4.31948,4e-5 -7.71812,1.2557 -10.19593,3.76696 -2.47784,2.47787 -4.01811,5.92674 -4.62082,10.34661 l 27.67467,0 c -4e-5,-2.07598 -0.28466,-3.96784 -0.85385,-5.67556 -0.56927,-1.74114 -1.40637,-3.23119 -2.51131,-4.47014 -1.10502,-1.27236 -2.46112,-2.2434 -4.06833,-2.91312 -1.57379,-0.70313 -3.38193,-1.05471 -5.42443,-1.05475"
         id="path3713"
         style="font-style:normal;font-weight:normal;fill:#0066ff;font-family:Lato;-inkscape-font-specification:Lato" />
      <path
         d="m 714.40506,865.73258 c -0.26791,0.36837 -0.53578,0.65298 -0.80362,0.85385 -0.26791,0.20094 -0.65298,0.3014 -1.1552,0.30136 -0.5023,4e-5 -1.05479,-0.20087 -1.65747,-0.60272 -0.56926,-0.43525 -1.30592,-0.90403 -2.20995,-1.40633 -0.90411,-0.50222 -2.00908,-0.95426 -3.31493,-1.35611 -1.27243,-0.43525 -2.84619,-0.6529 -4.72127,-0.65294 -2.47785,4e-5 -4.67106,0.45208 -6.57964,1.3561 -1.90862,0.87064 -3.51585,2.14303 -4.82172,3.8172 -1.27241,1.67425 -2.24345,3.70004 -2.91312,6.07738 -0.63621,2.3774 -0.95431,5.03939 -0.9543,7.98597 -10e-6,3.08056 0.35157,5.82626 1.05475,8.2371 0.70316,2.37739 1.69094,4.38644 2.96335,6.02715 1.27238,1.60725 2.81265,2.84616 4.62082,3.71674 1.8416,0.83712 3.90088,1.25567 6.17782,1.25566 2.17644,10e-6 3.96785,-0.25112 5.37421,-0.75339 1.4063,-0.53574 2.57825,-1.12171 3.51584,-1.75792 0.93752,-0.63619 1.70765,-1.20542 2.31041,-1.70769 0.60267,-0.53574 1.20539,-0.80361 1.80814,-0.80362 0.7701,10e-6 1.33933,0.28462 1.70769,0.85384 l 2.51132,3.26471 c -2.21,2.71222 -4.97244,4.70453 -8.28733,5.97692 -3.31497,1.23892 -6.81406,1.85837 -10.49729,1.85837 -3.18102,0 -6.14436,-0.58597 -8.89005,-1.75792 -2.71223,-1.17194 -5.07286,-2.86289 -7.0819,-5.07285 -2.00905,-2.24343 -3.59955,-4.98913 -4.77149,-8.2371 -1.13847,-3.24795 -1.7077,-6.94794 -1.70769,-11.1 -10e-6,-3.78368 0.519,-7.28277 1.55701,-10.49729 1.07149,-3.21444 2.61176,-5.97688 4.62082,-8.28733 2.04252,-2.34384 4.55383,-4.16873 7.53393,-5.47466 2.98007,-1.30583 6.39545,-1.95877 10.24616,-1.95882 3.54929,5e-5 6.6968,0.58602 9.44253,1.75792 2.74566,1.13851 5.17326,2.76249 7.28281,4.87194 l -2.36064,3.21448"
         id="path3715"
         style="font-style:normal;font-weight:normal;fill:#0066ff;font-family:Lato;-inkscape-font-specification:Lato" />
      <path
         d="m 736.53444,833.58778 0,73.98326 -8.94028,0 0,-73.98326 8.94028,0"
         id="path3717"
         style="font-style:normal;font-weight:normal;fill:#0066ff;font-family:Lato;-inkscape-font-specification:Lato" />
      <path
         d="m 762.23615,856.69186 0,50.87918 -8.94027,0 0,-50.87918 8.94027,0 m 2.00905,-15.97195 c -2e-5,0.87066 -0.18418,1.69102 -0.55249,2.46109 -0.33486,0.73671 -0.80364,1.4064 -1.40633,2.00905 -0.56925,0.56929 -1.23893,1.02133 -2.00905,1.35611 -0.77015,0.3349 -1.59052,0.50232 -2.46109,0.50226 -0.8706,6e-5 -1.69096,-0.16736 -2.46109,-0.50226 -0.73666,-0.33478 -1.40634,-0.78682 -2.00905,-1.35611 -0.56923,-0.60265 -1.02127,-1.27234 -1.3561,-2.00905 -0.33485,-0.77007 -0.50227,-1.59043 -0.50227,-2.46109 0,-0.87052 0.16742,-1.69088 0.50227,-2.46108 0.33483,-0.80355 0.78687,-1.48998 1.3561,-2.05928 0.60271,-0.60264 1.27239,-1.07142 2.00905,-1.40634 0.77013,-0.33476 1.59049,-0.50218 2.46109,-0.50226 0.87057,8e-5 1.69094,0.1675 2.46109,0.50226 0.77012,0.33492 1.4398,0.8037 2.00905,1.40634 0.60269,0.5693 1.07147,1.25573 1.40633,2.05928 0.36831,0.7702 0.55247,1.59056 0.55249,2.46108"
         id="path3719"
         style="font-style:normal;font-weight:normal;fill:#0066ff;font-family:Lato;-inkscape-font-specification:Lato" />
      <path
         d="m 777.99307,924.79865 0,-68.10679 5.32398,0 c 1.27238,5e-5 2.076,0.61951 2.41086,1.85837 l 0.75339,6.02715 c 2.17645,-2.6452 4.65428,-4.77145 7.43349,-6.37873 2.81264,-1.60719 6.04386,-2.41081 9.69366,-2.41086 2.91309,5e-5 5.55833,0.56928 7.93575,1.70769 2.37733,1.10502 4.40312,2.76249 6.07737,4.9724 1.67416,2.17651 2.9633,4.88872 3.86743,8.13665 0.90402,3.248 1.35605,6.98148 1.3561,11.20045 -5e-5,3.75025 -0.50231,7.24934 -1.50678,10.49729 -1.00458,3.21449 -2.4444,6.01041 -4.31946,8.38778 -1.87516,2.3439 -4.18556,4.20226 -6.93122,5.57511 -2.71226,1.33937 -5.77605,2.00905 -9.19141,2.00905 -3.14753,0 -5.84301,-0.519 -8.08642,-1.55701 -2.20998,-1.03801 -4.1688,-2.51131 -5.87647,-4.41991 l 0,22.50136 -8.94027,0 m 22.65203,-61.77829 c -2.91315,5e-5 -5.47468,0.66973 -7.68461,2.00905 -2.17649,1.33941 -4.18554,3.23127 -6.02715,5.67557 l 0,24.61086 c 1.6407,2.20997 3.4321,3.76698 5.37421,4.67104 1.97554,0.90408 4.16875,1.35612 6.57963,1.35611 4.72124,10e-6 8.35427,-1.69094 10.8991,-5.07285 2.54475,-3.38189 3.81715,-8.2036 3.81719,-14.46516 -4e-5,-3.3149 -0.3014,-6.16105 -0.90407,-8.53846 -0.56927,-2.37734 -1.40637,-4.31942 -2.51131,-5.82625 -1.10502,-1.54023 -2.46112,-2.66194 -4.06833,-3.36515 -1.60727,-0.70313 -3.43216,-1.05471 -5.47466,-1.05476"
         id="path3721"
         style="font-style:normal;font-weight:normal;fill:#0066ff;font-family:Lato;-inkscape-font-specification:Lato" />
      <path
         d="m 862.64783,865.07964 c -0.40184,0.73669 -1.0213,1.10502 -1.85837,1.10498 -0.50229,4e-5 -1.07152,-0.18412 -1.70769,-0.55249 -0.63623,-0.36828 -1.42311,-0.77009 -2.36063,-1.20543 -0.90411,-0.46873 -1.99234,-0.88729 -3.26471,-1.25566 -1.27242,-0.40176 -2.77921,-0.60267 -4.52036,-0.60271 -1.50681,4e-5 -2.86292,0.20095 -4.06833,0.60271 -1.20545,0.36837 -2.24345,0.88738 -3.11403,1.55702 -0.83711,0.66972 -1.49005,1.4566 -1.95882,2.36063 -0.43531,0.87063 -0.65295,1.82493 -0.65294,2.8629 -10e-6,1.30592 0.36831,2.39415 1.10498,3.2647 0.77012,0.87062 1.77464,1.62402 3.01357,2.26018 1.2389,0.63623 2.64523,1.20546 4.21901,1.7077 1.57373,0.4688 3.18097,0.98781 4.82172,1.55701 1.67418,0.53577 3.29816,1.13849 4.87194,1.80814 1.57373,0.66971 2.98006,1.50682 4.21901,2.51132 1.23887,1.00455 2.22666,2.24346 2.96335,3.71674 0.77009,1.43984 1.15516,3.18101 1.1552,5.22353 -4e-5,2.3439 -0.41859,4.52037 -1.25566,6.52941 -0.83714,1.97557 -2.07605,3.70001 -3.71674,5.1733 -1.64076,1.43983 -3.6498,2.57829 -6.02715,3.41539 -2.3774,0.8371 -5.1231,1.25565 -8.2371,1.25565 -3.54934,0 -6.76382,-0.56923 -9.64344,-1.70769 -2.87965,-1.17194 -5.32399,-2.66198 -7.33303,-4.47013 l 2.1095,-3.41539 c 0.26787,-0.43528 0.58597,-0.77012 0.9543,-1.00452 0.36832,-0.23438 0.85384,-0.35158 1.45656,-0.35159 0.6027,10e-6 1.2389,0.2344 1.9086,0.70317 0.66967,0.46879 1.47329,0.98779 2.41086,1.55701 0.97102,0.56924 2.12623,1.08825 3.46561,1.55702 1.37283,0.46878 3.08052,0.70317 5.12307,0.70317 1.74116,0 3.26469,-0.21765 4.57059,-0.65295 1.30586,-0.46877 2.39409,-1.08822 3.26471,-1.85837 0.87056,-0.77012 1.50675,-1.65745 1.90859,-2.66199 0.43527,-1.00451 0.65292,-2.076 0.65295,-3.21448 -3e-5,-1.40632 -0.3851,-2.56152 -1.15521,-3.46561 -0.73668,-0.93754 -1.72446,-1.72441 -2.96335,-2.36063 -1.23894,-0.66966 -2.66201,-1.2389 -4.26923,-1.70769 -1.57377,-0.50224 -3.19775,-1.02125 -4.87194,-1.55702 -1.64074,-0.53572 -3.26472,-1.13844 -4.87195,-1.80814 -1.57377,-0.70314 -2.9801,-1.57373 -4.219,-2.61177 -1.23892,-1.03798 -2.24345,-2.31038 -3.01358,-3.81719 -0.73665,-1.54024 -1.10498,-3.39861 -1.10498,-5.57512 0,-1.94204 0.40181,-3.80041 1.20543,-5.57511 0.80362,-1.8081 1.97556,-3.38185 3.51584,-4.72127 1.54026,-1.3728 3.43212,-2.46103 5.67557,-3.2647 2.24342,-0.80357 4.80496,-1.20538 7.68461,-1.20543 3.34839,5e-5 6.34522,0.5358 8.9905,1.60724 2.6787,1.03806 4.9891,2.47787 6.93122,4.31945 l -2.00905,3.26471"
         id="path3723"
         style="font-style:normal;font-weight:normal;fill:#0066ff;font-family:Lato;-inkscape-font-specification:Lato" />
      <path
         d="m 897.21291,855.88824 c 3.04703,5e-5 5.85969,0.51905 8.43801,1.55701 2.57824,1.00458 4.80493,2.47788 6.68009,4.41991 1.87507,1.90864 3.33163,4.28602 4.36968,7.13213 1.07145,2.8127 1.60719,6.02718 1.60724,9.64344 -5e-5,1.40636 -0.15073,2.34392 -0.45204,2.81267 -0.3014,0.4688 -0.87063,0.70319 -1.70769,0.70316 l -33.85249,0 c 0.067,3.21451 0.50225,6.01043 1.30588,8.38779 0.80361,2.37739 1.90859,4.36969 3.31494,5.97692 1.40631,1.57377 3.08052,2.76245 5.02262,3.56606 1.94206,0.77015 4.11853,1.15521 6.52941,1.15521 2.24341,0 4.16875,-0.25113 5.77602,-0.7534 1.64069,-0.53573 3.04702,-1.10496 4.21901,-1.70769 1.1719,-0.6027 2.14294,-1.15519 2.91312,-1.65746 0.80358,-0.53574 1.49,-0.80361 2.05927,-0.80362 0.73661,10e-6 1.30584,0.28462 1.7077,0.85384 l 2.51131,3.26471 c -1.10502,1.33937 -2.42765,2.51131 -3.96787,3.51584 -1.54032,0.97104 -3.19778,1.77466 -4.9724,2.41086 -1.74122,0.63619 -3.54936,1.10497 -5.42444,1.40633 -1.87514,0.33484 -3.73351,0.50226 -5.57511,0.50226 -3.51586,0 -6.76382,-0.58597 -9.74389,-1.75792 -2.94662,-1.20542 -5.50816,-2.9466 -7.68462,-5.22353 -2.14299,-2.31039 -3.8172,-5.15655 -5.02262,-8.53846 -1.20544,-3.38188 -1.80815,-7.26604 -1.80815,-11.65249 0,-3.54929 0.53575,-6.86422 1.60724,-9.94479 1.10497,-3.08051 2.67873,-5.7425 4.72127,-7.98598 2.04252,-2.27687 4.53709,-4.05153 7.48371,-5.32398 2.94659,-1.30583 6.26152,-1.95877 9.9448,-1.95882 m 0.2009,6.57964 c -4.31948,4e-5 -7.71812,1.2557 -10.19593,3.76696 -2.47784,2.47787 -4.01811,5.92674 -4.62081,10.34661 l 27.67466,0 c -4e-5,-2.07598 -0.28465,-3.96784 -0.85384,-5.67556 -0.56927,-1.74114 -1.40638,-3.23119 -2.51132,-4.47014 -1.10501,-1.27236 -2.46112,-2.2434 -4.06832,-2.91312 -1.57379,-0.70313 -3.38193,-1.05471 -5.42444,-1.05475"
         id="path3725"
         style="font-style:normal;font-weight:normal;fill:#0066ff;font-family:Lato;-inkscape-font-specification:Lato" />
      <path
         d="m 926.73967,902.04616 c 0,-0.87058 0.15068,-1.69095 0.45204,-2.46109 0.33484,-0.77013 0.77013,-1.43981 1.30588,-2.00905 0.56923,-0.56922 1.23891,-1.02125 2.00905,-1.35611 0.77013,-0.33483 1.59049,-0.50225 2.46109,-0.50226 0.87057,10e-6 1.69094,0.16743 2.46108,0.50226 0.77013,0.33486 1.43981,0.78689 2.00905,1.35611 0.56922,0.56924 1.00451,1.23892 1.30589,2.00905 0.33482,0.77014 0.50224,1.59051 0.50226,2.46109 -2e-5,0.90407 -0.16744,1.74118 -0.50226,2.51131 -0.30138,0.73665 -0.73667,1.38959 -1.30589,1.95882 -0.56924,0.56924 -1.23892,1.00453 -2.00905,1.30589 -0.77014,0.33484 -1.59051,0.50226 -2.46108,0.50226 -0.8706,0 -1.69096,-0.16742 -2.46109,-0.50226 -0.77014,-0.30136 -1.43982,-0.73665 -2.00905,-1.30589 -0.53575,-0.56923 -0.97104,-1.22217 -1.30588,-1.95882 -0.30136,-0.77013 -0.45204,-1.60724 -0.45204,-2.51131"
         id="path3727"
         style="font-style:normal;font-weight:normal;fill:#0066ff;font-family:Lato;-inkscape-font-specification:Lato" />
      <path
         d="m 971.63093,855.88824 c 3.71671,5e-5 7.06513,0.61951 10.04525,1.85837 3.01353,1.23896 5.55833,2.99688 7.63439,5.27375 2.10946,2.27697 3.71669,5.03941 4.82172,8.28734 1.13841,3.21451 1.70764,6.81405 1.70769,10.79864 -5e-5,4.01812 -0.56928,7.63441 -1.70769,10.84887 -1.10503,3.21449 -2.71226,5.96019 -4.82172,8.2371 -2.07606,2.27693 -4.62086,4.03485 -7.63439,5.27376 -2.98012,1.20543 -6.32854,1.80814 -10.04525,1.80814 -3.71676,0 -7.08192,-0.60271 -10.09547,-1.80814 -2.98011,-1.23891 -5.5249,-2.99683 -7.63439,-5.27376 -2.10951,-2.27691 -3.73349,-5.02261 -4.87195,-8.2371 -1.13846,-3.21446 -1.70769,-6.83075 -1.70769,-10.84887 0,-3.98459 0.56923,-7.58413 1.70769,-10.79864 1.13846,-3.24793 2.76244,-6.01037 4.87195,-8.28734 2.10949,-2.27687 4.65428,-4.03479 7.63439,-5.27375 3.01355,-1.23886 6.37871,-1.85832 10.09547,-1.85837 m 0,45.40452 c 5.02259,10e-6 8.77282,-1.6742 11.25068,-5.02262 2.47779,-3.38189 3.7167,-8.08641 3.71674,-14.11358 -4e-5,-6.0606 -1.23895,-10.78186 -3.71674,-14.1638 -2.47786,-3.38185 -6.22809,-5.0728 -11.25068,-5.07285 -2.54482,5e-5 -4.75477,0.43534 -6.62986,1.30588 -1.87514,0.87064 -3.44889,2.12629 -4.72127,3.76697 -1.23893,1.64077 -2.17648,3.66656 -2.81267,6.07738 -0.60273,2.37741 -0.90408,5.07288 -0.90407,8.08642 -10e-6,3.0136 0.30134,5.70907 0.90407,8.08643 0.63619,2.37739 1.57374,4.38644 2.81267,6.02715 1.27238,1.60725 2.84613,2.84616 4.72127,3.71674 1.87509,0.8706 4.08504,1.30589 6.62986,1.30588"
         id="path3729"
         style="font-style:normal;font-weight:normal;fill:#0066ff;font-family:Lato;-inkscape-font-specification:Lato" />
      <path
         d="m 1006.9541,907.57104 0,-50.87918 5.1231,0 c 0.971,5e-5 1.6407,0.18421 2.0091,0.55249 0.3683,0.36837 0.6194,1.00457 0.7533,1.90859 l 0.6028,7.93575 c 1.7411,-3.54928 3.8841,-6.31172 6.4289,-8.28733 2.5783,-2.009 5.5918,-3.01352 9.0407,-3.01357 1.4063,5e-5 2.6787,0.16747 3.8172,0.50226 1.1385,0.30141 2.1932,0.7367 3.1643,1.30588 l -1.1552,6.68009 c -0.2344,0.83715 -0.7534,1.2557 -1.557,1.25566 -0.4688,4e-5 -1.1887,-0.15064 -2.1598,-0.45204 -0.971,-0.3348 -2.3271,-0.50222 -4.0683,-0.50226 -3.114,4e-5 -5.7258,0.90411 -7.8353,2.71222 -2.076,1.80818 -3.8172,4.43668 -5.2235,7.88552 l 0,32.39592 -8.9403,0"
         id="path3731"
         style="font-style:normal;font-weight:normal;fill:#0066ff;font-family:Lato;-inkscape-font-specification:Lato" />
      <path
         d="m 1064.4977,855.83801 c 2.2099,5e-5 4.2692,0.25118 6.1778,0.7534 1.9421,0.46882 3.7,1.17199 5.2738,2.1095 l 13.8122,0 0,3.31493 c -10e-5,1.10502 -0.7032,1.80819 -2.1095,2.1095 l -5.776,0.80362 c 1.1384,2.17651 1.7076,4.60411 1.7077,7.28281 -10e-5,2.47786 -0.4856,4.73804 -1.4566,6.78054 -0.9376,2.00908 -2.2602,3.73351 -3.9679,5.1733 -1.6742,1.43985 -3.6833,2.54482 -6.0271,3.31494 -2.3105,0.77015 -4.8553,1.15522 -7.6344,1.1552 -2.3774,2e-5 -4.6208,-0.2846 -6.7303,-0.85385 -1.0715,0.66971 -1.8919,1.38962 -2.4611,2.15973 -0.5358,0.77016 -0.8036,1.52355 -0.8036,2.26018 0,1.20545 0.4855,2.12626 1.4565,2.76245 0.971,0.60272 2.2602,1.03802 3.8674,1.30588 1.6073,0.26788 3.4322,0.4353 5.4747,0.50226 2.0425,0.067 4.1185,0.18418 6.2281,0.35159 2.1429,0.13394 4.2357,0.38507 6.2782,0.75339 2.0425,0.36833 3.8674,0.97105 5.4747,1.80814 1.6072,0.83712 2.8963,1.99232 3.8674,3.46562 0.971,1.4733 1.4565,3.3819 1.4566,5.72579 -10e-5,2.17646 -0.5526,4.28596 -1.6575,6.3285 -1.0715,2.04253 -2.6285,3.85067 -4.671,5.42444 -2.0426,1.60722 -4.5372,2.87962 -7.4837,3.81719 -2.9467,0.97103 -6.2783,1.45655 -9.9951,1.45656 -3.7167,-1e-5 -6.9814,-0.36834 -9.7941,-1.10497 -2.7792,-0.73667 -5.0896,-1.72445 -6.9312,-2.96335 -1.8416,-1.23893 -3.2312,-2.67875 -4.1688,-4.31946 -0.904,-1.60725 -1.3561,-3.2982 -1.3561,-5.07285 0,-2.51131 0.7869,-4.63756 2.3607,-6.37873 1.6072,-1.77466 3.8004,-3.18099 6.5796,-4.21901 -1.4398,-0.66967 -2.595,-1.557 -3.4656,-2.66199 -0.8371,-1.13845 -1.2557,-2.64524 -1.2557,-4.52036 0,-0.73664 0.134,-1.49003 0.4018,-2.26018 0.2679,-0.80361 0.6697,-1.59048 1.2055,-2.36063 0.5692,-0.77012 1.2556,-1.50677 2.0592,-2.20996 0.8036,-0.70315 1.7412,-1.3226 2.8127,-1.85837 -2.5113,-1.40631 -4.4869,-3.26468 -5.9267,-5.57511 -1.4063,-2.34387 -2.1095,-5.07282 -2.1095,-8.18688 0,-2.47779 0.4688,-4.72123 1.4063,-6.73032 0.9711,-2.04249 2.3104,-3.76692 4.0181,-5.1733 1.7077,-1.43977 3.7335,-2.54475 6.0774,-3.31493 2.3774,-0.77009 4.9724,-1.15516 7.7851,-1.15521 m 15.8715,54.49548 c -1e-4,-1.2724 -0.3516,-2.29367 -1.0548,-3.0638 -0.7032,-0.77014 -1.6575,-1.35611 -2.8629,-1.75792 -1.2054,-0.43529 -2.595,-0.75339 -4.1687,-0.9543 -1.5738,-0.2009 -3.2313,-0.33484 -4.9724,-0.40181 -1.7412,-0.10045 -3.5159,-0.2009 -5.324,-0.30136 -1.8082,-0.10045 -3.5326,-0.28461 -5.1733,-0.55249 -1.9086,0.90408 -3.4657,2.00906 -4.6711,3.31494 -1.1719,1.30588 -1.7579,2.86289 -1.7579,4.67104 0,1.13845 0.2846,2.1932 0.8539,3.16425 0.6027,1.00452 1.5067,1.85836 2.7122,2.56154 1.2054,0.73664 2.7122,1.30587 4.5203,1.70769 1.8416,0.43528 4.0014,0.65293 6.4792,0.65294 2.4109,-10e-6 4.5706,-0.21766 6.4792,-0.65294 1.9086,-0.4353 3.5158,-1.05476 4.8217,-1.85837 1.3394,-0.80363 2.3606,-1.75793 3.0638,-2.8629 0.7032,-1.10498 1.0547,-2.32715 1.0548,-3.66651 m -15.8715,-27.62444 c 1.8081,3e-5 3.3986,-0.2511 4.7715,-0.75339 1.4063,-0.50224 2.5782,-1.2054 3.5158,-2.1095 0.9375,-0.90405 1.6407,-1.97554 2.1095,-3.21448 0.4688,-1.27237 0.7032,-2.66196 0.7032,-4.16878 0,-3.11399 -0.9543,-5.59182 -2.8629,-7.43349 -1.8752,-1.84158 -4.6209,-2.76239 -8.2371,-2.76244 -3.5828,5e-5 -6.3285,0.92086 -8.2371,2.76244 -1.8751,1.84167 -2.8127,4.3195 -2.8127,7.43349 0,1.50682 0.2344,2.89641 0.7032,4.16878 0.5022,1.23894 1.2221,2.31043 2.1597,3.21448 0.9375,0.9041 2.0928,1.60726 3.4656,2.1095 1.3729,0.50229 2.9466,0.75342 4.7213,0.75339"
         id="path3733"
         style="font-style:normal;font-weight:normal;fill:#0066ff;font-family:Lato;-inkscape-font-specification:Lato" />
    </g>
  </g>
  <g
     transform="translate(3655.2533,1372.7471)"
     id="layer1"
     style="display:inline">
    <g
       transform="matrix(6.7951139,0,0,6.7951139,-3593.2466,-1674.2889)"
       id="g3109" />
    <g
       transform="matrix(3.8965618,0,0,3.8965618,-1629.3818,-865.51399)"
       id="g3012">
      <g
         transform="matrix(2.7189384,0,0,2.7189384,-457.4577,-990.40065)"
         id="text2985"
         style="font-size:129.34725952px;font-style:italic;font-variant:normal;font-weight:bold;font-stretch:normal;line-height:125%;letter-spacing:0px;word-spacing:0px;fill:#000000;fill-opacity:1;stroke:none;font-family:Muli;-inkscape-font-specification:Muli Bold Italic">
        <path
           d="m 280.56751,457.60287 c -0.47433,0.94862 -1.03483,1.61692 -1.68151,2.00488 -0.60368,0.38812 -1.33665,0.58214 -2.1989,0.58207 -0.86237,7e-5 -1.83248,-0.3233 -2.91032,-0.97011 -1.07794,-0.68978 -2.34986,-1.4443 -3.81574,-2.26358 -1.46598,-0.81912 -3.19061,-1.55208 -5.17389,-2.1989 -1.94025,-0.68977 -4.24694,-1.0347 -6.92008,-1.03478 -2.41452,8e-5 -4.52719,0.30189 -6.33802,0.90543 -1.76777,0.56059 -3.27682,1.35823 -4.52715,2.39293 -1.20727,1.03485 -2.1127,2.28521 -2.71629,3.75107 -0.60365,1.42289 -0.90546,2.99661 -0.90543,4.72117 -3e-5,2.19897 0.60359,4.03139 1.81086,5.49726 1.25033,1.466 2.88873,2.71635 4.91519,3.75107 2.02641,1.03484 4.3331,1.96183 6.92008,2.78097 2.58691,0.81925 5.21697,1.70313 7.89019,2.65162 2.71624,0.90548 5.36786,1.98337 7.95485,3.23368 2.58689,1.20729 4.89358,2.75945 6.92008,4.6565 2.02638,1.85402 3.64322,4.13915 4.85052,6.8554 1.25029,2.71633 1.87547,6.01469 1.87554,9.89507 -7e-5,4.22537 -0.73303,8.19201 -2.19891,11.89995 -1.42288,3.66485 -3.53555,6.87697 -6.33801,9.63637 -2.75946,2.7163 -6.14405,4.87208 -10.15376,6.46736 -4.00981,1.55217 -8.60163,2.32825 -13.77548,2.32825 -2.97502,0 -5.90689,-0.30181 -8.79562,-0.90543 -2.88877,-0.5605 -5.66974,-1.3797 -8.3429,-2.4576 -2.63007,-1.07789 -5.10922,-2.37136 -7.43746,-3.88041 -2.28514,-1.50905 -4.33314,-3.19056 -6.144,-5.04455 l 5.04454,-8.3429 c 0.47427,-0.6036 1.03477,-1.09943 1.68152,-1.48749 0.68984,-0.43113 1.44437,-0.64671 2.26358,-0.64674 1.07788,3e-5 2.242,0.45274 3.49237,1.35815 1.25034,0.86234 2.71628,1.83244 4.39781,2.91031 1.72461,1.07791 3.72949,2.06958 6.01465,2.97499 2.32822,0.86233 5.10918,1.29349 8.34289,1.29347 4.95828,2e-5 8.79558,-1.16411 11.51191,-3.49237 2.71625,-2.37135 4.07439,-5.75593 4.07444,-10.15376 -5e-5,-2.45757 -0.62523,-4.46245 -1.87554,-6.01465 -1.20728,-1.55213 -2.82412,-2.8456 -4.85052,-3.88042 -2.02648,-1.07785 -4.33317,-1.98328 -6.92008,-2.71629 -2.58697,-0.73293 -5.21703,-1.53057 -7.89018,-2.39292 -2.6732,-0.86228 -5.30326,-1.89705 -7.89018,-3.10434 -2.58696,-1.20719 -4.89365,-2.78092 -6.92008,-4.72117 -2.02645,-1.94016 -3.66485,-4.35464 -4.9152,-7.24345 -1.20724,-2.93181 -1.81086,-6.53197 -1.81086,-10.8005 0,-3.40607 0.66829,-6.72598 2.00488,-9.95973 1.3797,-3.23361 3.36302,-6.1008 5.94998,-8.6016 2.63004,-2.50062 5.84216,-4.5055 9.63637,-6.01465 3.79416,-1.50895 8.12729,-2.26348 12.9994,-2.26357 5.51877,9e-5 10.60643,0.86241 15.26298,2.58694 4.65644,1.72472 8.62309,4.1392 11.89994,7.24345 l -4.26846,8.21355"
           id="path3121"
           style="font-style:normal;fill:#000000;font-family:Lato;-inkscape-font-specification:Lato Bold" />
        <path
           d="m 364.20466,512.05807 c 0.94848,2e-5 1.76767,0.3665 2.4576,1.09945 l 6.85541,7.43747 c -3.79427,4.69962 -8.47232,8.29978 -14.03418,10.80049 -5.51888,2.50072 -12.1587,3.75107 -19.91948,3.75107 -6.94168,0 -13.19346,-1.18568 -18.75535,-3.55705 -5.51884,-2.37136 -10.24001,-5.66971 -14.16353,-9.89506 -3.92354,-4.22533 -6.94164,-9.26987 -9.0543,-15.13363 -2.06957,-5.86371 -3.10434,-12.26639 -3.10434,-19.20807 0,-7.02781 1.16412,-13.45205 3.49238,-19.27274 2.32824,-5.86367 5.60503,-10.90821 9.83039,-15.13363 4.22532,-4.22526 9.26986,-7.50205 15.13363,-9.83039 5.90682,-2.37128 12.41729,-3.55696 19.53143,-3.55705 6.94158,9e-5 12.99934,1.1211 18.17329,3.36303 5.21693,2.19899 9.67941,5.13086 13.38745,8.79561 l -5.82063,8.0842 c -0.345,0.51747 -0.79772,0.97018 -1.35815,1.35815 -0.51746,0.38811 -1.25043,0.58214 -2.1989,0.58206 -0.99174,8e-5 -2.00496,-0.38797 -3.03966,-1.16412 -1.03485,-0.77601 -2.34988,-1.61677 -3.94509,-2.52227 -1.59535,-0.90536 -3.62179,-1.74611 -6.07932,-2.52228 -2.41454,-0.776 -5.49732,-1.16404 -9.24833,-1.16412 -4.39786,8e-5 -8.45073,0.77616 -12.15865,2.32825 -3.66487,1.50913 -6.83388,3.68647 -9.50702,6.53204 -2.63009,2.8457 -4.69964,6.31652 -6.20867,10.41245 -1.46596,4.05294 -2.19892,8.6232 -2.1989,13.71081 -2e-5,5.26016 0.73294,9.93822 2.1989,14.03418 1.50903,4.09602 3.53547,7.54528 6.07932,10.34778 2.5438,2.80254 5.54034,4.95833 8.98964,6.46736 3.44922,1.46595 7.15717,2.19892 11.12386,2.19891 2.37132,10e-6 4.50554,-0.12934 6.40269,-0.38805 1.94015,-0.25868 3.7079,-0.66828 5.30324,-1.2288 1.63833,-0.56048 3.16894,-1.27189 4.59183,-2.13423 1.46587,-0.90541 2.91024,-2.00486 4.33313,-3.29835 0.43109,-0.38802 0.8838,-0.68983 1.35815,-0.90543 0.4742,-0.25867 0.99159,-0.38802 1.55216,-0.38804"
           id="path3123"
           style="font-style:normal;fill:#000000;font-family:Lato;-inkscape-font-specification:Lato Bold" />
        <path
           d="m 406.16775,534.11177 -17.46188,0 0,-93.51806 17.46188,0 0,93.51806"
           id="path3125"
           style="font-style:normal;fill:#000000;font-family:Lato;-inkscape-font-specification:Lato Bold" />
        <path
           d="m 486.22764,440.59371 0,13.84015 -41.4558,0 0,25.93413 32.66018,0 0,13.38744 -32.66018,0 0,26.45151 41.4558,0 0,13.90483 -58.98235,0 0,-93.51806 58.98235,0"
           id="path3127"
           style="font-style:normal;fill:#000000;font-family:Lato;-inkscape-font-specification:Lato Bold" />
        <path
           d="m 510.38526,440.59371 c 0.77607,9e-5 1.4228,0.0432 1.94021,0.12934 0.51737,0.0432 0.97009,0.17256 1.35815,0.38804 0.43113,0.17256 0.84073,0.45281 1.2288,0.84076 0.38802,0.34502 0.81917,0.81929 1.29347,1.42282 l 49.08729,62.5394 c -0.17254,-1.50902 -0.30189,-2.97495 -0.38805,-4.3978 -0.0432,-1.46591 -0.0647,-2.82405 -0.0647,-4.07444 l 0,-56.84812 15.32765,0 0,93.51806 -8.98963,0 c -1.37979,0 -2.52235,-0.21557 -3.42771,-0.64673 -0.9055,-0.43116 -1.78937,-1.20724 -2.65162,-2.32825 l -48.89326,-62.28071 c 0.12932,1.37977 0.21555,2.75947 0.2587,4.13911 0.0862,1.33665 0.12932,2.56545 0.12934,3.6864 l 0,57.43018 -15.32765,0 0,-93.51806 9.11898,0 0,0"
           id="path3129"
           style="font-style:normal;fill:#000000;font-family:Lato;-inkscape-font-specification:Lato Bold" />
        <path
           d="m 663.32021,512.05807 c 0.94847,2e-5 1.76767,0.3665 2.4576,1.09945 l 6.8554,7.43747 c -3.79426,4.69962 -8.47232,8.29978 -14.03417,10.80049 -5.51888,2.50072 -12.1587,3.75107 -19.91948,3.75107 -6.94168,0 -13.19346,-1.18568 -18.75535,-3.55705 -5.51885,-2.37136 -10.24002,-5.66971 -14.16353,-9.89506 -3.92355,-4.22533 -6.94164,-9.26987 -9.05431,-15.13363 -2.06956,-5.86371 -3.10434,-12.26639 -3.10433,-19.20807 -10e-6,-7.02781 1.16412,-13.45205 3.49237,-19.27274 2.32825,-5.86367 5.60504,-10.90821 9.8304,-15.13363 4.22532,-4.22526 9.26986,-7.50205 15.13363,-9.83039 5.90682,-2.37128 12.41729,-3.55696 19.53143,-3.55705 6.94158,9e-5 12.99934,1.1211 18.17329,3.36303 5.21693,2.19899 9.67941,5.13086 13.38744,8.79561 l -5.82062,8.0842 c -0.34501,0.51747 -0.79772,0.97018 -1.35815,1.35815 -0.51747,0.38811 -1.25043,0.58214 -2.1989,0.58206 -0.99174,8e-5 -2.00496,-0.38797 -3.03966,-1.16412 -1.03485,-0.77601 -2.34988,-1.61677 -3.9451,-2.52227 -1.59534,-0.90536 -3.62178,-1.74611 -6.07932,-2.52228 -2.41454,-0.776 -5.49731,-1.16404 -9.24833,-1.16412 -4.39785,8e-5 -8.45073,0.77616 -12.15864,2.32825 -3.66487,1.50913 -6.83388,3.68647 -9.50702,6.53204 -2.63009,2.8457 -4.69964,6.31652 -6.20867,10.41245 -1.46596,4.05294 -2.19893,8.6232 -2.1989,13.71081 -3e-5,5.26016 0.73294,9.93822 2.1989,14.03418 1.50903,4.09602 3.53546,7.54528 6.07932,10.34778 2.5438,2.80254 5.54034,4.95833 8.98964,6.46736 3.44921,1.46595 7.15716,2.19892 11.12386,2.19891 2.37131,10e-6 4.50554,-0.12934 6.40269,-0.38805 1.94015,-0.25868 3.70789,-0.66828 5.30324,-1.2288 1.63833,-0.56048 3.16894,-1.27189 4.59182,-2.13423 1.46587,-0.90541 2.91025,-2.00486 4.33314,-3.29835 0.43108,-0.38802 0.8838,-0.68983 1.35814,-0.90543 0.4742,-0.25867 0.99159,-0.38802 1.55217,-0.38804"
           id="path3131"
           style="font-style:normal;fill:#000000;font-family:Lato;-inkscape-font-specification:Lato Bold" />
        <path
           d="m 744.66953,440.59371 0,13.84015 -41.4558,0 0,25.93413 32.66019,0 0,13.38744 -32.66019,0 0,26.45151 41.4558,0 0,13.90483 -58.98235,0 0,-93.51806 58.98235,0"
           id="path3133"
           style="font-style:normal;fill:#000000;font-family:Lato;-inkscape-font-specification:Lato Bold" />
      </g>
    </g>
    <g
       transform="matrix(3.8965618,0,0,3.8965618,-1629.3818,-865.51399)"
       id="g3693" />
  </g>
  <g
     id="layer11">
    <path
       d="m 438.83837,2160.8516 c 0,381.7785 309.49277,691.2713 691.27133,691.2713 381.7787,-10e-5 691.2713,-309.4928 691.2713,-691.2715 l -691.2713,0 z"
       id="path3107"
       style="fill:#0066ff;fill-opacity:1;stroke:none;display:inline" />
    <path
       d="m 2495.7124,575.5061 c -1.471,0.40363 -5.2694,-8.6107 -12.5012,-25.83142 -7.2318,-17.22065 -17.9837,-42.69391 -35.2303,-74.08461 -17.2465,-31.39071 -41.0943,-68.78103 -74.919,-107.72322 -33.8247,-38.9422 -77.7357,-79.53072 -133.8734,-113.86009 -49.7864,-30.48602 -109.3408,-55.85677 -176.6413,-70.37379 -33.6503,-7.25851 -69.1828,-11.78829 -105.9725,-12.77954 -36.7898,-0.99125 -74.8388,1.55604 -113.2331,8.51382 -61.4443,11.08298 -123.9548,33.57623 -182.7833,68.02628 -58.8285,34.45004 -113.9842,80.86591 -158.751,138.54636 -39.2206,50.43313 -70.4886,109.64806 -90.761,174.27659 -20.2724,64.62854 -29.5483,134.67182 -24.4154,205.26823 0,7e-5 0,1.4e-4 0,2e-4 3.1768,45.59685 12.2883,91.45157 26.3041,136.90769 14.0158,45.45612 32.9355,90.51363 55.4512,134.4152 42.9306,83.5205 99.7935,163.0098 161.7585,242.1328 59.7893,76.1858 124.6127,152.2859 186.0323,234.7768 59.0946,79.2013 114.8184,165.0939 155.5658,261.0931 49.5936,117.3933 74.1702,247.4832 69.6074,378.6244 -0.9919,28.5062 -3.3534,56.89 -7.0765,85.0244 -10.5797,79.7729 -32.065,157.2278 -62.7937,229.8861 -30.7287,72.6583 -70.6991,140.5172 -118.2829,201.4297 -49.8799,63.8148 -107.9205,119.7745 -171.2356,166.7272 -63.315,46.9526 -131.9019,84.8971 -203.1633,113.0226 -75.9782,29.9634 -154.706,48.6783 -232.9729,56.9212 -78.2669,8.243 -156.0706,6.0147 -230.7838,-5.7402 0,-10e-5 -1e-4,-10e-5 -2e-4,-10e-5 -81.68366,-12.8731 -159.37916,-37.0537 -230.76256,-69.7295 -71.3833,-32.6757 -136.45498,-73.8448 -193.70516,-120.9516 -65.28299,-53.7419 -120.1881,-114.9702 -164.68202,-179.3186 -44.49392,-64.3483 -78.58349,-131.8192 -103.03815,-199.0674 -30.48734,-83.8896 -45.96728,-167.0684 -50.74311,-244.7888 -4.77584,-77.7202 1.13554,-150.0169 13.41375,-214.5336 13.81108,-72.5132 35.49392,-135.0777 58.80524,-187.2426 23.31133,-52.165 48.26014,-94.0115 70.3796,-126.4705 22.11947,-32.4591 41.41582,-55.6073 55.07847,-70.5649 13.66267,-14.9574 21.68808,-21.7811 22.8945,-20.7626 1.20642,1.0185 -4.43803,9.8451 -15.56969,26.5065 -11.13167,16.6614 -27.74188,41.2167 -46.96644,74.5252 -19.22456,33.3085 -41.06729,75.4474 -61.19219,127.0716 -20.12491,51.6242 -38.54117,112.814 -49.33752,182.8235 -9.61506,62.2858 -13.09742,131.6013 -6.51723,205.5791 6.5802,73.9777 23.23725,152.6529 53.79102,231.3212 24.48128,63.0725 57.96206,126.1348 100.99027,186.0233 43.0282,59.8886 95.60956,116.6066 157.49002,165.9919 54.2452,43.3137 115.71534,81.0017 182.84514,110.7194 67.1299,29.7177 139.9199,51.4641 216.00496,62.632 0,0 2e-4,0 2e-4,0 69.5868,10.2335 142.0258,11.6049 214.7493,3.3256 72.7234,-8.2794 145.7291,-26.2098 215.8707,-54.4334 65.8019,-26.455 129.1783,-62.0256 187.6377,-105.8344 58.4594,-43.8086 111.9994,-95.8539 157.8287,-154.9404 43.7524,-56.3735 80.5445,-119.2632 108.8382,-186.5343 28.2936,-67.2713 48.0874,-138.9211 57.7847,-212.4979 3.428,-25.9472 5.6018,-52.1484 6.5156,-78.4794 4.204,-121.1346 -18.3846,-241.6415 -63.9192,-350.0537 -37.1538,-88.9148 -89.972,-170.4312 -146.8003,-247.7053 -59.277,-80.4278 -123.4331,-156.5353 -183.7793,-234.466 -62.7524,-80.8713 -121.2395,-164.3638 -166.3832,-253.5796 -23.7986,-46.9328 -43.6464,-95.62425 -58.2708,-145.20575 -14.6244,-49.5815 -24.0251,-100.05288 -27.2098,-150.64149 0,-1.3e-4 0,-2e-4 0,-2.7e-4 -4.7392,-78.67023 6.4346,-155.81821 29.717,-226.64878 23.2823,-70.8305 58.6709,-135.34522 102.7217,-190.25919 50.3983,-62.71337 111.4721,-112.3097 176.1828,-148.55425 64.7107,-36.24454 133.0664,-59.14836 200.0336,-69.70845 41.8564,-6.56805 83.0039,-8.3263 122.5523,-6.26249 39.5484,2.06381 77.4995,7.94952 113.2536,16.74194 71.5082,17.58482 134.0105,46.72047 185.6973,80.98338 29.1189,19.32616 54.7825,40.21998 77.2913,61.51181 22.5089,21.29183 41.8663,42.98455 58.4865,64.18659 33.2402,42.40408 55.5309,82.66493 70.7463,116.29626 15.2155,33.63126 23.4586,60.71855 27.9897,79.14561 4.531,18.42706 5.4287,28.24682 3.9576,28.65058 z"
       id="path3091"
       style="fill:#000000;fill-rule:evenodd;stroke:none;display:inline" />
    <path
       d="m 1106.2569,1140.1283 c 0,73.1592 -59.3071,132.4664 -132.46626,132.4664 -73.1593,0 -132.4664,-59.3072 -132.4664,-132.4664 0,-73.1592 59.3071,-132.4664 132.4664,-132.4664 73.15916,0 132.46626,59.3072 132.46626,132.4664 z"
       id="path3097"
       style="fill:#87aade;stroke:none;display:inline" />
    <path
       d="m 1047.0217,1460.3698 c 0,87.7911 -71.16866,158.9597 -158.95966,158.9597 -87.791,0 -158.9597,-71.1686 -158.9597,-158.9597 0,-87.7908 71.1687,-158.9595 158.9597,-158.9595 87.791,0 158.95966,71.1687 158.95966,158.9595 z"
       id="path3099"
       style="fill:#87aade;stroke:none;display:inline" />
    <path
       d="m 730.63224,1274.6582 c 0,52.8372 -42.83297,95.6702 -95.67016,95.6702 -52.83719,0 -95.67018,-42.833 -95.67018,-95.6702 0,-52.8372 42.83299,-95.6702 95.67018,-95.6702 52.83719,0 95.67016,42.833 95.67016,95.6702 z"
       id="path3103"
       style="fill:#87aade;stroke:none;display:inline" />
  </g>
</svg>
